<svg width="26" height="26" viewBox="0 0 26 26" fill="none" xmlns="http://www.w3.org/2000/svg">
<path d="M19.704 19.3197C18.0401 19.3197 16.6682 20.6625 16.6682 22.3556C16.6682 24.0195 18.0109 25.3915 19.704 25.3915C21.3679 25.3915 22.7399 24.0487 22.7399 22.3556C22.7107 20.6917 21.3679 19.3197 19.704 19.3197Z" fill="white"/>
<path d="M25.046 4.84111C24.9876 4.84111 24.9 4.81192 24.8125 4.81192H6.42205L6.13014 2.85612C5.95499 1.57171 4.84573 0.608398 3.53213 0.608398H1.16764C0.52544 0.608398 0 1.13384 0 1.77604C0 2.41825 0.52544 2.94369 1.16764 2.94369H3.53213C3.67808 2.94369 3.79485 3.06045 3.82404 3.20641L5.63389 15.5251C5.86742 17.0722 7.21021 18.2398 8.78653 18.2398H20.93C22.448 18.2398 23.7616 17.1598 24.0827 15.671L25.9801 6.1839C26.0969 5.57089 25.6882 4.95788 25.046 4.84111Z" fill="white"/>
<path d="M12.2603 22.2096C12.2019 20.6041 10.8591 19.3197 9.25361 19.3197C7.56052 19.4073 6.27611 20.8084 6.33449 22.4723C6.39288 24.0779 7.70648 25.3623 9.31199 25.3623H9.37037C11.0343 25.2747 12.3479 23.8735 12.2603 22.2096Z" fill="white"/>
</svg>
