<svg width="28" height="28" viewBox="0 0 28 28" fill="none" xmlns="http://www.w3.org/2000/svg">
<g clip-path="url(#clip0)">
<path d="M11.7032 2.84711L0.356131 22.5004C-0.376634 23.7691 0.0578344 25.3917 1.32655 26.1244C1.72987 26.3574 2.18744 26.4799 2.65322 26.48H25.3473C26.8124 26.4799 28 25.2922 28 23.8271C28 23.3613 27.8774 22.9038 27.6444 22.5004L16.2974 2.84711C15.5653 1.57849 13.9433 1.1435 12.6746 1.87566C12.2711 2.10855 11.936 2.44362 11.7032 2.84711Z" fill="white"/>
<path d="M14.0002 8.88806H14.0006C14.8287 8.88806 15.5 9.5594 15.5 10.3875V16.5303C15.5 17.3584 14.8287 18.0297 14.0006 18.0297H14.0002C13.1721 18.0297 12.5008 17.3584 12.5008 16.5303V10.3875C12.5008 9.5594 13.172 8.88806 14.0002 8.88806Z" fill="#02CEF2"/>
<path d="M14.0002 23.1416C14.8283 23.1416 15.4997 22.4703 15.4997 21.6421C15.4997 20.814 14.8283 20.1427 14.0002 20.1427C13.1721 20.1427 12.5008 20.814 12.5008 21.6421C12.5008 22.4703 13.1721 23.1416 14.0002 23.1416Z" fill="#02CEF2"/>
</g>
<defs>
<clipPath id="clip0">
<rect width="28" height="28" fill="white"/>
</clipPath>
</defs>
</svg>
