<svg width="14" height="14" viewBox="0 0 14 14" fill="none" xmlns="http://www.w3.org/2000/svg">
<g clip-path="url(#clip0)">
<path d="M13.2298 0.770111C12.7166 0.256735 12.0982 0 11.3752 0H2.62511C1.90208 0 1.28371 0.256735 0.770234 0.770111C0.256858 1.28358 0.00012207 1.90192 0.00012207 2.62498V11.3749C0.00012207 12.0979 0.256858 12.7163 0.770234 13.2298C1.28371 13.7433 1.90208 14 2.62511 14H11.3751C12.0981 14 12.7165 13.7433 13.2297 13.2298C13.7432 12.7163 13.9999 12.0979 13.9999 11.3749V2.62498C13.9999 1.90192 13.7432 1.28349 13.2298 0.770111ZM11.6668 7.29158C11.6668 7.54678 11.5481 7.72594 11.3113 7.82932C11.2324 7.85968 11.1561 7.87487 11.0833 7.87487C10.9194 7.87487 10.7827 7.81706 10.6732 7.70171L9.3608 6.38924L4.49383 11.2565C4.37823 11.3719 4.24163 11.4297 4.0836 11.4297C3.92551 11.4297 3.78878 11.3719 3.67334 11.2565L2.74367 10.3267C2.6282 10.2114 2.57045 10.0744 2.57045 9.91653C2.57045 9.75869 2.6282 9.6219 2.74367 9.50652L7.61093 4.63921L6.29842 3.32674C6.11001 3.15052 6.06751 2.93796 6.17076 2.68873C6.274 2.45182 6.45335 2.33322 6.70856 2.33322H11.0834C11.2413 2.33322 11.3781 2.391 11.4937 2.50651C11.6091 2.62188 11.6668 2.75865 11.6668 2.91664V7.29158H11.6668Z" fill="white"/>
</g>
<defs>
<clipPath id="clip0">
<rect width="14" height="14" fill="white"/>
</clipPath>
</defs>
</svg>
