<svg width="28" height="28" viewBox="0 0 28 28" fill="none" xmlns="http://www.w3.org/2000/svg">
<path d="M4.28317 3.30432C4.28242 3.30432 4.28157 3.30432 4.28082 3.30432C4.01599 3.30432 3.76691 3.40755 3.57883 3.59516C3.38868 3.78485 3.28394 4.03741 3.28394 4.30629V19.3307C3.28394 19.8816 3.73392 20.3309 4.28713 20.3323C6.61934 20.3379 10.5267 20.824 13.2223 23.6448V7.92141C13.2223 7.73465 13.1746 7.5592 13.0845 7.41402C10.8722 3.85112 6.62066 3.30979 4.28317 3.30432Z" fill="white"/>
<path d="M24.7162 19.3306V4.30617C24.7162 4.03729 24.6115 3.78473 24.4213 3.59504C24.2332 3.40743 23.984 3.3042 23.7194 3.3042C23.7186 3.3042 23.7177 3.3042 23.717 3.3042C21.3796 3.30976 17.1281 3.8511 14.9156 7.41399C14.8256 7.55918 14.778 7.73463 14.778 7.92139V23.6447C17.4735 20.8239 21.3809 20.3378 23.7131 20.3322C24.2662 20.3308 24.7162 19.8815 24.7162 19.3306Z" fill="white"/>
<path d="M26.9982 6.76904H26.2717V19.3305C26.2717 20.7372 25.1256 21.8843 23.7167 21.8878C21.7385 21.8925 18.4767 22.2793 16.1667 24.4657C20.1619 23.4875 24.3736 24.1234 26.7739 24.6703C27.0736 24.7386 27.3833 24.6681 27.6234 24.4767C27.8627 24.2858 28 24.0004 28 23.6941V7.77082C28.0001 7.21846 27.5506 6.76904 26.9982 6.76904Z" fill="white"/>
<path d="M1.72828 19.3305V6.76904H1.00178C0.44951 6.76904 0 7.21846 0 7.77082V23.6938C0 24.0002 0.137266 24.2855 0.37654 24.4764C0.616473 24.6677 0.925889 24.7385 1.22606 24.6701C3.62634 24.123 7.83814 23.4872 11.8332 24.4654C9.52324 22.2791 6.26146 21.8924 4.28326 21.8877C2.87449 21.8843 1.72828 20.7372 1.72828 19.3305Z" fill="white"/>
</svg>
