<svg width="175" height="61" viewBox="0 0 175 61" fill="none" xmlns="http://www.w3.org/2000/svg">
<path d="M13.2612 41.9925L23.5224 35.8358V58M3.82087 22.7015L13.6716 29.2687L35.4253 16.9552V29.2687M3 22.291L35.0149 3L46.097 9.97761V22.291L35.4254 28.0373L35.0149 51.0224L24.3433 57.1791L12.8507 51.0224V41.5821L3 36.2463V22.291Z" stroke="url(#paint0_linear)" stroke-width="5"/>
<path d="M67.0286 38.9141H65.0598C64.716 38.9141 64.5441 38.7501 64.5441 38.4219V26.6791C64.5441 26.5072 64.4582 26.4213 64.2863 26.4213H61.6143C61.2861 26.4213 61.1221 26.2572 61.1221 25.9291V24.3352C61.1221 24.0071 61.2861 23.843 61.6143 23.843H70.4741C70.8023 23.843 70.9663 24.0071 70.9663 24.3352V25.9291C70.9663 26.2572 70.8023 26.4213 70.4741 26.4213H67.8021C67.6146 26.4213 67.5208 26.5072 67.5208 26.6791V38.4219C67.5208 38.7501 67.3568 38.9141 67.0286 38.9141Z" fill="white"/>
<path d="M80.9128 38.9141H73.2483C72.9202 38.9141 72.7561 38.7501 72.7561 38.4219V24.3352C72.7561 24.0071 72.9202 23.843 73.2483 23.843H80.9128C81.2253 23.843 81.3816 24.0071 81.3816 24.3352V25.9291C81.3816 26.2572 81.2253 26.4213 80.9128 26.4213H76.0141C75.8266 26.4213 75.7328 26.5072 75.7328 26.6791V29.7262C75.7328 29.898 75.8266 29.984 76.0141 29.984H80.0221C80.3502 29.984 80.5143 30.148 80.5143 30.4762V32.07C80.5143 32.3982 80.3502 32.5622 80.0221 32.5622H76.0141C75.8266 32.5622 75.7328 32.6482 75.7328 32.8201V36.078C75.7328 36.2499 75.8266 36.3359 76.0141 36.3359H80.9128C81.2253 36.3359 81.3816 36.4999 81.3816 36.8281V38.4219C81.3816 38.7501 81.2253 38.9141 80.9128 38.9141Z" fill="white"/>
<path d="M86.4564 38.9141H84.4641C84.136 38.9141 83.9719 38.7501 83.9719 38.4219V24.3352C83.9719 24.0071 84.136 23.843 84.4641 23.843H90.0425C91.2613 23.843 92.2145 24.179 92.902 24.8509C93.5896 25.5228 93.9334 26.4682 93.9334 27.687V29.5152C93.9334 31.2809 93.238 32.4529 91.8473 33.031V33.1248L94.3553 38.3516C94.4959 38.7266 94.3631 38.9141 93.9568 38.9141H92.0583C91.777 38.9141 91.5739 38.8829 91.4488 38.8204C91.3238 38.7579 91.2223 38.6251 91.1442 38.4219L88.8003 33.3592H87.2299C87.0424 33.3592 86.9486 33.4451 86.9486 33.617V38.4219C86.9486 38.7501 86.7845 38.9141 86.4564 38.9141ZM87.2064 30.9684H89.5034C90.0035 30.9684 90.3707 30.8668 90.6051 30.6637C90.8394 30.4449 90.9566 30.1012 90.9566 29.6324V27.8042C90.9566 27.3198 90.8394 26.9682 90.6051 26.7494C90.3707 26.5307 90.0035 26.4213 89.5034 26.4213H87.2064C87.0346 26.4213 86.9486 26.5072 86.9486 26.6791V30.7106C86.9486 30.8825 87.0346 30.9684 87.2064 30.9684Z" fill="white"/>
<path d="M99.2745 38.9141H97.2822C96.954 38.9141 96.79 38.7501 96.79 38.4219V24.3352C96.79 24.0071 96.954 23.843 97.2822 23.843H102.861C104.079 23.843 105.033 24.179 105.72 24.8509C106.408 25.5228 106.751 26.4682 106.751 27.687V29.5152C106.751 31.2809 106.056 32.4529 104.665 33.031V33.1248L107.173 38.3516C107.314 38.7266 107.181 38.9141 106.775 38.9141H104.876C104.595 38.9141 104.392 38.8829 104.267 38.8204C104.142 38.7579 104.04 38.6251 103.962 38.4219L101.618 33.3592H100.048C99.8604 33.3592 99.7667 33.4451 99.7667 33.617V38.4219C99.7667 38.7501 99.6026 38.9141 99.2745 38.9141ZM100.024 30.9684H102.321C102.822 30.9684 103.189 30.8668 103.423 30.6637C103.657 30.4449 103.775 30.1012 103.775 29.6324V27.8042C103.775 27.3198 103.657 26.9682 103.423 26.7494C103.189 26.5307 102.822 26.4213 102.321 26.4213H100.024C99.8526 26.4213 99.7667 26.5072 99.7667 26.6791V30.7106C99.7667 30.8825 99.8526 30.9684 100.024 30.9684Z" fill="white"/>
<path d="M111.178 38.9141H108.928C108.647 38.9141 108.553 38.7501 108.647 38.4219L112.35 24.3352C112.46 24.0071 112.694 23.843 113.053 23.843H116.171C116.561 23.843 116.796 24.0071 116.874 24.3352L120.577 38.4219C120.671 38.7501 120.577 38.9141 120.296 38.9141H118.046C117.874 38.9141 117.757 38.8829 117.694 38.8204C117.632 38.7423 117.585 38.6094 117.554 38.4219L116.897 35.8437H112.327L111.671 38.4219C111.639 38.6094 111.585 38.7423 111.507 38.8204C111.444 38.8829 111.335 38.9141 111.178 38.9141ZM114.577 26.6791L112.889 33.4529H116.358L114.671 26.6791H114.577Z" fill="white"/>
<path d="M124.929 37.4609H128.772C130.116 37.4609 130.788 36.7968 130.788 35.4686V33.9451C130.788 32.6169 130.069 31.9528 128.632 31.9528H124.929C124.772 31.9528 124.694 32.0231 124.694 32.1638V37.2265C124.694 37.3828 124.772 37.4609 124.929 37.4609ZM124.929 30.5231H128.538C129.913 30.5231 130.601 29.859 130.601 28.5308V27.2885C130.601 25.9603 129.937 25.2962 128.608 25.2962H124.929C124.772 25.2962 124.694 25.3744 124.694 25.5306V30.3121C124.694 30.4528 124.772 30.5231 124.929 30.5231ZM122.983 38.586V24.1712C122.983 23.9524 123.092 23.843 123.311 23.843H128.819C129.898 23.843 130.741 24.1477 131.351 24.7571C131.96 25.3509 132.265 26.1869 132.265 27.2651V28.5542C132.265 29.9449 131.609 30.8434 130.296 31.2497C130.89 31.2965 131.398 31.5622 131.819 32.0466C132.241 32.5154 132.452 33.1404 132.452 33.9217V35.4921C132.452 36.5703 132.14 37.4141 131.515 38.0235C130.905 38.6172 130.062 38.9141 128.983 38.9141H123.311C123.092 38.9141 122.983 38.8048 122.983 38.586Z" fill="white"/>
<path d="M143.863 23.843H144.918C145.136 23.843 145.246 23.9446 145.246 24.1477V35.4452C145.246 36.539 144.941 37.3906 144.332 38C143.722 38.6094 142.879 38.9141 141.8 38.9141H139.199C138.12 38.9141 137.269 38.6094 136.644 38C136.034 37.3906 135.73 36.539 135.73 35.4452V24.1712C135.73 23.9524 135.839 23.843 136.058 23.843H137.113C137.331 23.843 137.441 23.9524 137.441 24.1712V35.3749C137.441 36.7343 138.089 37.4141 139.386 37.4141H141.589C142.902 37.4141 143.558 36.7343 143.558 35.3749V24.1712C143.558 23.9524 143.66 23.843 143.863 23.843Z" fill="white"/>
<path d="M150.653 24.1712V38.586C150.653 38.8048 150.544 38.9141 150.325 38.9141H149.271C149.052 38.9141 148.942 38.8048 148.942 38.586V24.1712C148.942 23.9524 149.052 23.843 149.271 23.843H150.325C150.544 23.843 150.653 23.9524 150.653 24.1712Z" fill="white"/>
<path d="M166.721 37.4331H170.659C171.971 37.4331 172.627 36.7534 172.627 35.3939V27.4013C172.627 26.0419 171.971 25.3621 170.659 25.3621H166.721C166.565 25.3621 166.486 25.4325 166.486 25.5731V37.2221C166.486 37.3628 166.565 37.4331 166.721 37.4331ZM164.775 38.605V24.1902C164.775 23.9714 164.885 23.8621 165.104 23.8621H170.869C171.948 23.8621 172.791 24.1746 173.401 24.7996C174.026 25.409 174.338 26.2528 174.338 27.331V35.4642C174.338 36.5424 174.026 37.394 173.401 38.0191C172.791 38.6285 171.948 38.9332 170.869 38.9332H165.104C164.885 38.9332 164.775 38.8238 164.775 38.605Z" fill="white"/>
<path d="M162.551 38.9332H155.027C154.808 38.9332 154.699 38.8238 154.699 38.605V24.1902C154.699 23.9714 154.808 23.8621 155.027 23.8621H156.082C156.3 23.8621 156.41 23.9714 156.41 24.1902V37.1753C156.41 37.3159 156.488 37.3862 156.644 37.3862H162.551C162.769 37.3862 162.879 37.5034 162.879 37.7378V38.605C162.879 38.8238 162.769 38.9332 162.551 38.9332Z" fill="white"/>
<defs>
<linearGradient id="paint0_linear" x1="0.321655" y1="-7.90518" x2="53.3893" y2="-2.63977" gradientUnits="userSpaceOnUse">
<stop stop-color="#0D6FFD"/>
<stop offset="1" stop-color="#02CEF2"/>
</linearGradient>
</defs>
</svg>
