<svg width="57" height="59" viewBox="0 0 57 59" fill="none" xmlns="http://www.w3.org/2000/svg">
<g clip-path="url(#clip0)">
<path d="M14.6402 38.6851C10.4438 37.5742 6.73251 35.1066 4.08455 31.6668C1.43659 28.227 0.000479859 24.008 7.33867e-05 19.6671C-0.00700823 17.0832 0.498495 14.5236 1.48738 12.1364C2.47626 9.74927 3.92911 7.58202 5.7613 5.76008C7.58321 3.92819 9.75031 2.47584 12.1373 1.48713C14.5243 0.498428 17.0834 -0.00700687 19.6671 7.33681e-05C24.4073 -0.00242146 28.9885 1.70834 32.567 4.81709C36.1014 7.88426 38.4262 12.1115 39.1231 16.7391C38.5231 16.6921 37.9153 16.6671 37.3043 16.6671C31.3961 16.6363 25.712 18.9259 21.4747 23.0432C17.2373 27.1604 14.7851 32.7765 14.6461 38.6831L14.6402 38.6851Z" fill="#06B1F6"/>
<path fill-rule="evenodd" clip-rule="evenodd" d="M24.2502 20.7474L24.2819 19.0299H24.2905V18.863L28.2311 16.8091L28.5 16.669V16.3658V11.6643V11.3834L28.2602 11.2373L23.8888 8.57313L23.6342 8.41797L23.3767 8.56818L10.7481 15.9338L10.5 16.0785V16.3658V21.6941V21.9965L10.7678 22.1369L14.3857 24.0338V27.3359V27.6399L14.6555 27.7798L17.07 29.0318C17.2205 28.7344 17.3776 28.4403 17.5413 28.1497L15.3857 27.0319V24.27L18.5952 22.406V26.4578C18.9111 25.9975 19.2446 25.5481 19.5952 25.1107V21.5374V20.6688L18.8441 21.105L15.1003 23.2794L11.5 21.3917V17.2312L14.9384 19.4501L15.1886 19.6115L15.4498 19.4684L23.2905 15.1725V18.5557L23.2361 21.5011C23.5676 21.24 23.9058 20.9887 24.2502 20.7474ZM15.2304 18.4484L11.998 16.3625L23.6229 9.58219L27.5 11.9451V16.0625L24.2905 17.7353V14.3284V13.4844L23.5502 13.89L15.2304 18.4484Z" fill="white"/>
<path d="M37.2988 59.334C48.1606 59.334 56.9658 50.5288 56.9658 39.667C56.9658 28.8052 48.1606 20 37.2988 20C26.4371 20 17.6318 28.8052 17.6318 39.667C17.6318 50.5288 26.4371 59.334 37.2988 59.334Z" fill="#06B1F6"/>
<path d="M32.339 38.085L37 33.424L41.6631 38.087L44.3751 35.375L37 28L29.6272 35.3728L32.3391 38.0848L32.339 38.085ZM25 40L27.7121 37.2875L30.424 39.9994L27.7119 42.7115L25 40ZM32.339 41.9153L37 46.576L41.663 41.9131L44.3765 44.6236L44.3751 44.6251L37 52L29.6272 44.6272L29.6233 44.6234L32.3393 41.915L32.339 41.9153ZM43.5759 40.0012L46.288 37.2891L48.9999 40.001L46.2879 42.7131L43.5759 40.0012Z" fill="white"/>
<path d="M39.7501 39.9985H39.7512L36.9995 37.2466L34.9655 39.28L34.7319 39.5137L34.2499 39.9958L34.2461 39.9995L34.2499 40.0034L36.9995 42.7534L39.7514 40.0014L39.7527 39.9999L39.7503 39.9985" fill="white"/>
</g>
<defs>
<clipPath id="clip0">
<rect width="56.966" height="59" fill="white"/>
</clipPath>
</defs>
</svg>
