<svg width="35" height="35" viewBox="0 0 35 35" fill="none" xmlns="http://www.w3.org/2000/svg">
<path fill-rule="evenodd" clip-rule="evenodd" d="M35 17.5C35 27.165 27.165 35 17.5 35C7.83502 35 0 27.165 0 17.5C0 7.83502 7.83502 0 17.5 0C27.165 0 35 7.83502 35 17.5ZM20.4873 9.54288C23.1807 9.74796 25.457 11.5321 25.457 11.5321C25.457 11.5321 28 15.2235 28.4512 22.4696C25.8877 25.4296 21.9912 25.4501 21.9912 25.4501L21.1777 24.3632C22.5586 23.8847 24.124 23.0234 25.4707 21.4716C23.8574 22.6952 21.4307 23.9599 17.5137 23.9599C13.5967 23.9599 11.1631 22.6884 9.55664 21.4716C10.9033 23.0234 12.4688 23.8847 13.8496 24.3632L13.0361 25.4501C13.0361 25.4501 9.13965 25.4296 6.57617 22.4696C7.01367 15.2235 9.55664 11.5321 9.55664 11.5321C9.55664 11.5321 11.7031 9.80949 14.5264 9.54288L14.7656 10.0282C12.5439 10.5273 11.2178 11.4775 10.0488 12.5234C12.0586 11.498 14.0479 10.5341 17.5068 10.5341C20.9658 10.5341 22.9551 11.498 24.9648 12.5234C23.7959 11.4775 22.6816 10.623 20.248 10.0282L20.4873 9.54288ZM12.5234 18.4911C12.5234 19.5917 13.3027 20.4804 14.2666 20.4804C15.2305 20.4804 16.0098 19.5917 16.0098 18.4911C16.0098 17.3905 15.2305 16.5019 14.2666 16.5019C13.3027 16.5019 12.5234 17.3905 12.5234 18.4911ZM18.9902 18.4911C18.9902 19.5917 19.7695 20.4804 20.7334 20.4804C21.6904 20.4804 22.4766 19.5917 22.4766 18.4911C22.4766 17.3905 21.6973 16.5019 20.7334 16.5019C19.7695 16.5019 18.9902 17.3905 18.9902 18.4911Z" fill="#02CEF2"/>
</svg>
