<svg width="35" height="35" viewBox="0 0 35 35" fill="none" xmlns="http://www.w3.org/2000/svg">
<path d="M17.5001 0.0726929C7.83516 0.0726929 0 7.90786 0 17.5728C0 26.2411 6.30913 33.4199 14.5814 34.8101V21.2238H10.3599V16.3346H14.5814V12.7296C14.5814 8.54666 17.1362 6.26721 20.8682 6.26721C22.6556 6.26721 24.1917 6.4004 24.6376 6.45906V10.8313L22.0492 10.8326C20.02 10.8326 19.6288 11.7966 19.6288 13.2118V16.3321H24.4706L23.8391 21.2213H19.6288V34.927C28.2873 33.8732 35 26.5115 35 17.5678C35 7.90786 27.1648 0.0726929 17.5001 0.0726929Z" fill="#02CEF2"/>
</svg>
