<svg width="28" height="28" viewBox="0 0 28 28" fill="none" xmlns="http://www.w3.org/2000/svg">
<g clip-path="url(#clip0)">
<path d="M27.2445 12.1786C27.2439 12.178 27.2433 12.1774 27.2426 12.1767L15.8208 0.755371C15.334 0.268311 14.6867 0 13.9982 0C13.3097 0 12.6624 0.268097 12.1754 0.755157L0.75955 12.1707C0.755705 12.1746 0.75186 12.1786 0.748015 12.1825C-0.251741 13.188 -0.250032 14.8195 0.752928 15.8224C1.21115 16.2809 1.81634 16.5464 2.46341 16.5742C2.48968 16.5767 2.51617 16.578 2.54288 16.578H2.99811V24.9834C2.99811 26.6467 4.35141 28 6.0151 28H10.4837C10.9366 28 11.304 27.6328 11.304 27.1797V20.5898C11.304 19.8308 11.9214 19.2135 12.6804 19.2135H15.316C16.075 19.2135 16.6924 19.8308 16.6924 20.5898V27.1797C16.6924 27.6328 17.0596 28 17.5127 28H21.9813C23.645 28 24.9983 26.6467 24.9983 24.9834V16.578H25.4204C26.1087 16.578 26.756 16.3099 27.2433 15.8228C28.2473 14.8182 28.2477 13.184 27.2445 12.1786Z" fill="white"/>
</g>
<defs>
<clipPath id="clip0">
<rect width="28" height="28" fill="white"/>
</clipPath>
</defs>
</svg>
