<svg width="260" height="87" viewBox="0 0 260 87" fill="none" xmlns="http://www.w3.org/2000/svg">
<path d="M18.2145 61.2654L33.4289 52.1368V85M4.21711 32.6623L18.823 42.3995L51.0776 24.1422V42.3995M3 32.0537L50.4691 3.4505L66.9007 13.7963V32.0537L51.0777 40.5738L50.4691 74.6541L34.6461 83.7828L17.6059 74.6541V60.6568L3 52.7453V32.0537Z" stroke="url(#paint0_linear)" stroke-width="5"/>
<path d="M97.9363 56.701H95.0171C94.5074 56.701 94.2525 56.4578 94.2525 55.9712V38.56C94.2525 38.3051 94.1251 38.1777 93.8702 38.1777H89.9084C89.4219 38.1777 89.1786 37.9344 89.1786 37.4479V35.0847C89.1786 34.5981 89.4219 34.3549 89.9084 34.3549H103.045C103.532 34.3549 103.775 34.5981 103.775 35.0847V37.4479C103.775 37.9344 103.532 38.1777 103.045 38.1777H99.0832C98.8052 38.1777 98.6662 38.3051 98.6662 38.56V55.9712C98.6662 56.4578 98.4229 56.701 97.9363 56.701Z" fill="white"/>
<path d="M118.523 56.701H107.158C106.672 56.701 106.429 56.4578 106.429 55.9712V35.0847C106.429 34.5981 106.672 34.3549 107.158 34.3549H118.523C118.986 34.3549 119.218 34.5981 119.218 35.0847V37.4479C119.218 37.9344 118.986 38.1777 118.523 38.1777H111.259C110.981 38.1777 110.842 38.3051 110.842 38.56V43.0779C110.842 43.3327 110.981 43.4601 111.259 43.4601H117.202C117.689 43.4601 117.932 43.7034 117.932 44.19V46.5532C117.932 47.0397 117.689 47.283 117.202 47.283H111.259C110.981 47.283 110.842 47.4104 110.842 47.6653V52.4959C110.842 52.7508 110.981 52.8782 111.259 52.8782H118.523C118.986 52.8782 119.218 53.1215 119.218 53.608V55.9712C119.218 56.4578 118.986 56.701 118.523 56.701Z" fill="white"/>
<path d="M126.742 56.701H123.788C123.302 56.701 123.058 56.4578 123.058 55.9712V35.0847C123.058 34.5981 123.302 34.3549 123.788 34.3549H132.059C133.867 34.3549 135.28 34.853 136.299 35.8492C137.319 36.8455 137.828 38.2472 137.828 40.0544V42.7651C137.828 45.3831 136.797 47.1208 134.735 47.978V48.1171L138.454 55.867C138.663 56.423 138.466 56.701 137.863 56.701H135.048C134.631 56.701 134.33 56.6547 134.145 56.562C133.959 56.4694 133.809 56.2724 133.693 55.9712L130.218 48.4646H127.889C127.611 48.4646 127.472 48.592 127.472 48.8469V55.9712C127.472 56.4578 127.229 56.701 126.742 56.701ZM127.854 44.9198H131.26C132.002 44.9198 132.546 44.7692 132.894 44.468C133.241 44.1436 133.415 43.6339 133.415 42.9389V40.2281C133.415 39.5099 133.241 38.9886 132.894 38.6642C132.546 38.3399 132.002 38.1777 131.26 38.1777H127.854C127.599 38.1777 127.472 38.3051 127.472 38.56V44.5375C127.472 44.7923 127.599 44.9198 127.854 44.9198Z" fill="white"/>
<path d="M145.748 56.701H142.794C142.307 56.701 142.064 56.4578 142.064 55.9712V35.0847C142.064 34.5981 142.307 34.3549 142.794 34.3549H151.065C152.872 34.3549 154.285 34.853 155.305 35.8492C156.324 36.8455 156.834 38.2472 156.834 40.0544V42.7651C156.834 45.3831 155.803 47.1208 153.741 47.978V48.1171L157.46 55.867C157.668 56.423 157.471 56.701 156.869 56.701H154.054C153.637 56.701 153.336 56.6547 153.15 56.562C152.965 56.4694 152.814 56.2724 152.698 55.9712L149.223 48.4646H146.895C146.617 48.4646 146.478 48.592 146.478 48.8469V55.9712C146.478 56.4578 146.234 56.701 145.748 56.701ZM146.86 44.9198H150.266C151.007 44.9198 151.552 44.7692 151.899 44.468C152.247 44.1436 152.42 43.6339 152.42 42.9389V40.2281C152.42 39.5099 152.247 38.9886 151.899 38.6642C151.552 38.3399 151.007 38.1777 150.266 38.1777H146.86C146.605 38.1777 146.478 38.3051 146.478 38.56V44.5375C146.478 44.7923 146.605 44.9198 146.86 44.9198Z" fill="white"/>
<path d="M163.398 56.701H160.062C159.645 56.701 159.506 56.4578 159.645 55.9712L165.136 35.0847C165.298 34.5981 165.645 34.3549 166.178 34.3549H170.8C171.38 34.3549 171.727 34.5981 171.843 35.0847L177.334 55.9712C177.473 56.4578 177.334 56.701 176.917 56.701H173.581C173.326 56.701 173.152 56.6547 173.059 56.562C172.967 56.4462 172.897 56.2493 172.851 55.9712L171.878 52.1484H165.101L164.128 55.9712C164.081 56.2493 164 56.4462 163.885 56.562C163.792 56.6547 163.63 56.701 163.398 56.701ZM168.437 38.56L165.935 48.6036H171.078L168.576 38.56H168.437Z" fill="white"/>
<path d="M183.786 54.5464H189.485C191.478 54.5464 192.474 53.5617 192.474 51.5924V49.3334C192.474 47.3641 191.408 46.3794 189.277 46.3794H183.786C183.554 46.3794 183.438 46.4837 183.438 46.6922V54.1988C183.438 54.4305 183.554 54.5464 183.786 54.5464ZM183.786 44.2595H189.137C191.176 44.2595 192.196 43.2748 192.196 41.3055V39.4636C192.196 37.4942 191.211 36.5095 189.242 36.5095H183.786C183.554 36.5095 183.438 36.6254 183.438 36.8571V43.9467C183.438 44.1552 183.554 44.2595 183.786 44.2595ZM180.901 56.2145V34.8414C180.901 34.517 181.063 34.3549 181.388 34.3549H189.555C191.153 34.3549 192.404 34.8066 193.308 35.7102C194.211 36.5906 194.663 37.8302 194.663 39.4288V41.3402C194.663 43.4022 193.69 44.7344 191.744 45.3368C192.624 45.4063 193.377 45.8002 194.003 46.5184C194.628 47.2135 194.941 48.1402 194.941 49.2987V51.6271C194.941 53.2257 194.478 54.4769 193.551 55.3804C192.648 56.2608 191.396 56.701 189.798 56.701H181.388C181.063 56.701 180.901 56.5389 180.901 56.2145Z" fill="white"/>
<path d="M211.86 34.3549H213.424C213.748 34.3549 213.91 34.5055 213.91 34.8066V51.5576C213.91 53.1794 213.459 54.4421 212.555 55.3457C211.651 56.2493 210.4 56.701 208.802 56.701H204.944C203.346 56.701 202.083 56.2493 201.156 55.3457C200.252 54.4421 199.801 53.1794 199.801 51.5576V34.8414C199.801 34.517 199.963 34.3549 200.287 34.3549H201.851C202.175 34.3549 202.338 34.517 202.338 34.8414V51.4533C202.338 53.469 203.299 54.4769 205.222 54.4769H208.489C210.435 54.4769 211.408 53.469 211.408 51.4533V34.8414C211.408 34.517 211.559 34.3549 211.86 34.3549Z" fill="white"/>
<path d="M221.928 34.8414V56.2145C221.928 56.5389 221.766 56.701 221.442 56.701H219.878C219.554 56.701 219.391 56.5389 219.391 56.2145V34.8414C219.391 34.517 219.554 34.3549 219.878 34.3549H221.442C221.766 34.3549 221.928 34.517 221.928 34.8414Z" fill="white"/>
<path d="M230.485 54.4769H236.323C238.27 54.4769 239.243 53.469 239.243 51.4533V39.6026C239.243 37.5869 238.27 36.579 236.323 36.579H230.485C230.253 36.579 230.137 36.6833 230.137 36.8918V54.1641C230.137 54.3726 230.253 54.4769 230.485 54.4769ZM227.6 56.2145V34.8414C227.6 34.517 227.763 34.3549 228.087 34.3549H236.636C238.235 34.3549 239.486 34.8182 240.39 35.745C241.316 36.6486 241.78 37.8997 241.78 39.4983V51.5576C241.78 53.1562 241.316 54.4189 240.39 55.3457C239.486 56.2493 238.235 56.701 236.636 56.701H228.087C227.763 56.701 227.6 56.5389 227.6 56.2145Z" fill="white"/>
<path d="M258.554 56.701H247.398C247.074 56.701 246.911 56.5389 246.911 56.2145V34.8414C246.911 34.517 247.074 34.3549 247.398 34.3549H248.962C249.286 34.3549 249.448 34.517 249.448 34.8414V54.0946C249.448 54.3031 249.564 54.4073 249.796 54.4073H258.554C258.878 54.4073 259.04 54.5811 259.04 54.9286V56.2145C259.04 56.5389 258.878 56.701 258.554 56.701Z" fill="white"/>
<defs>
<linearGradient id="paint0_linear" x1="-0.971229" y1="-12.7188" x2="77.7132" y2="-4.91169" gradientUnits="userSpaceOnUse">
<stop stop-color="#0D6FFD"/>
<stop offset="1" stop-color="#02CEF2"/>
</linearGradient>
</defs>
</svg>
