<svg width="35" height="35" viewBox="0 0 35 35" fill="none" xmlns="http://www.w3.org/2000/svg">
<path d="M17.5 0C7.83398 0 0 7.83398 0 17.5C0 27.166 7.83398 35 17.5 35C27.166 35 35 27.166 35 17.5C35 7.83398 27.166 0 17.5 0ZM27.501 9.91211L25.9082 11.4365C25.7646 11.5391 25.7031 11.7168 25.7305 11.8809V23.1191C25.7031 23.29 25.7715 23.4609 25.9082 23.5635L27.4736 25.0879V25.4297H19.626V25.1084L21.2393 23.543C21.3965 23.3857 21.3965 23.3379 21.3965 23.0986V14.0068L16.9053 25.3955H16.2969L11.0742 14.0068V21.6426C11.0264 21.9639 11.1426 22.2852 11.3682 22.5176L13.4668 25.0605V25.4023H7.49902V25.0605L9.59766 22.5176C9.82324 22.2852 9.92578 21.9639 9.87109 21.6426V12.8105C9.89844 12.5645 9.80273 12.3252 9.61816 12.1611L7.75195 9.91211V9.57031H13.5557L18.0332 19.3936L21.9775 9.57715H27.5078V9.91211H27.501Z" fill="#02CEF2"/>
</svg>
