<svg width="70" height="70" viewBox="0 0 70 70" fill="none" xmlns="http://www.w3.org/2000/svg">
<g filter="url(#filter0_d)">
<g filter="url(#filter1_i)">
<circle cx="35.5" cy="26.5" r="22.5" fill="url(#paint0_linear)"/>
</g>
<g filter="url(#filter2_bii)">
<path fill-rule="evenodd" clip-rule="evenodd" d="M26.5 58C38.9264 58 49 47.9264 49 35.5C49 23.0736 38.9264 13 26.5 13C14.0736 13 4 23.0736 4 35.5C4 47.9264 14.0736 58 26.5 58ZM24.2521 32.137C24.2521 33.5711 23.6723 34.8526 22.757 35.7679C21.8111 36.6833 20.5296 37.263 19.126 37.263C17.692 37.263 16.4105 36.6833 15.4951 35.7679C14.5797 34.8221 14 33.5405 14 32.137C14 29.8744 16.5651 26.8961 18.4514 24.7058L18.4514 24.7058L18.5158 24.631L19.126 23.9292L19.7363 24.631L19.9591 24.8883L19.9592 24.8884L19.9592 24.8884C20.8853 25.9572 21.9386 27.1728 22.757 28.4145C22.757 28.4298 22.7646 28.4374 22.7722 28.445C22.7799 28.4526 22.7875 28.4603 22.7875 28.4755C23.2147 29.1468 23.5808 29.7875 23.8554 30.4283C24.0995 31.0385 24.2521 31.6183 24.2521 32.137ZM36.4569 21.183L36.3044 21L36.1518 21.183L36.1303 21.208C35.0032 22.5179 33.4667 24.3034 33.4667 25.5768C33.4667 26.3701 33.7719 27.0719 34.2906 27.5906C34.8093 28.1093 35.5111 28.4144 36.3044 28.4144C37.0977 28.4144 37.7995 28.1093 38.3182 27.5906C38.8369 27.0719 39.142 26.3701 39.142 25.5768C39.142 24.3034 37.6056 22.5179 36.4785 21.2081L36.4569 21.183ZM26.089 26.0987C26.2873 25.8677 26.4798 25.6436 26.6625 25.4243C27.1507 25.9735 27.6389 26.5533 28.1576 27.2245C28.2058 27.2806 28.2543 27.337 28.303 27.3937C31.6471 31.2841 36.1823 36.5602 36.1823 40.6804C36.1823 43.3044 35.1449 45.7149 33.4057 47.4236C31.6665 49.1322 29.2866 50.2002 26.6625 50.2002C24.0385 50.2002 21.6585 49.1628 19.9193 47.4236C18.2107 45.6844 17.1427 43.3044 17.1427 40.6804C17.1427 40.2227 17.2038 39.7955 17.2953 39.3379L17.4784 38.6056C17.5547 38.6208 17.6233 38.6361 17.692 38.6513C17.7606 38.6666 17.8293 38.6818 17.9055 38.6971C18.3022 38.7886 18.6989 38.8191 19.126 38.8191C20.9873 38.8191 22.6349 38.0869 23.8554 36.8664C25.0759 35.6459 25.8082 33.9677 25.8082 32.137C25.8082 31.4047 25.6251 30.6419 25.2895 29.8486C25.0454 29.2688 24.7403 28.6891 24.3741 28.1094L25.1674 27.194C25.479 26.8091 25.7906 26.4462 26.089 26.0987Z" fill="white" fill-opacity="0.4"/>
</g>
</g>
<defs>
<filter id="filter0_d" x="0" y="0" width="70" height="70" filterUnits="userSpaceOnUse" color-interpolation-filters="sRGB">
<feFlood flood-opacity="0" result="BackgroundImageFix"/>
<feColorMatrix in="SourceAlpha" type="matrix" values="0 0 0 0 0 0 0 0 0 0 0 0 0 0 0 0 0 0 127 0" result="hardAlpha"/>
<feOffset dx="4" dy="4"/>
<feGaussianBlur stdDeviation="4"/>
<feColorMatrix type="matrix" values="0 0 0 0 0 0 0 0 0 0 0 0 0 0 0 0 0 0 0.4 0"/>
<feBlend mode="normal" in2="BackgroundImageFix" result="effect1_dropShadow"/>
<feBlend mode="normal" in="SourceGraphic" in2="effect1_dropShadow" result="shape"/>
</filter>
<filter id="filter1_i" x="13" y="4" width="45" height="45" filterUnits="userSpaceOnUse" color-interpolation-filters="sRGB">
<feFlood flood-opacity="0" result="BackgroundImageFix"/>
<feBlend mode="normal" in="SourceGraphic" in2="BackgroundImageFix" result="shape"/>
<feColorMatrix in="SourceAlpha" type="matrix" values="0 0 0 0 0 0 0 0 0 0 0 0 0 0 0 0 0 0 127 0" result="hardAlpha"/>
<feOffset/>
<feGaussianBlur stdDeviation="4"/>
<feComposite in2="hardAlpha" operator="arithmetic" k2="-1" k3="1"/>
<feColorMatrix type="matrix" values="0 0 0 0 1 0 0 0 0 1 0 0 0 0 1 0 0 0 0.8 0"/>
<feBlend mode="normal" in2="shape" result="effect1_innerShadow"/>
</filter>
<filter id="filter2_bii" x="0" y="9" width="53" height="53" filterUnits="userSpaceOnUse" color-interpolation-filters="sRGB">
<feFlood flood-opacity="0" result="BackgroundImageFix"/>
<feGaussianBlur in="BackgroundImage" stdDeviation="2"/>
<feComposite in2="SourceAlpha" operator="in" result="effect1_backgroundBlur"/>
<feBlend mode="normal" in="SourceGraphic" in2="effect1_backgroundBlur" result="shape"/>
<feColorMatrix in="SourceAlpha" type="matrix" values="0 0 0 0 0 0 0 0 0 0 0 0 0 0 0 0 0 0 127 0" result="hardAlpha"/>
<feOffset/>
<feGaussianBlur stdDeviation="2"/>
<feComposite in2="hardAlpha" operator="arithmetic" k2="-1" k3="1"/>
<feColorMatrix type="matrix" values="0 0 0 0 1 0 0 0 0 1 0 0 0 0 1 0 0 0 1 0"/>
<feBlend mode="normal" in2="shape" result="effect2_innerShadow"/>
<feColorMatrix in="SourceAlpha" type="matrix" values="0 0 0 0 0 0 0 0 0 0 0 0 0 0 0 0 0 0 127 0" result="hardAlpha"/>
<feOffset dy="4"/>
<feGaussianBlur stdDeviation="4"/>
<feComposite in2="hardAlpha" operator="arithmetic" k2="-1" k3="1"/>
<feColorMatrix type="matrix" values="0 0 0 0 1 0 0 0 0 1 0 0 0 0 1 0 0 0 1 0"/>
<feBlend mode="normal" in2="effect2_innerShadow" result="effect3_innerShadow"/>
</filter>
<linearGradient id="paint0_linear" x1="10.2034" y1="-4.92242" x2="65.2768" y2="2.05122" gradientUnits="userSpaceOnUse">
<stop stop-color="#0D6FFD"/>
<stop offset="1" stop-color="#02CEF2"/>
</linearGradient>
</defs>
</svg>
